#!OML:ASF X:\für Bonn\!DataBase\2005_08_12_Daniel\c3d\Daniel.ASF
:FULLY-SPECIFIED
:DEGREES
53
root -3.5623 17.4075 1.23986 29.1962 -77.9311 -65.4398
lowerback 57.4352 -15.2232 -5.40133
upperback 13.6452 -24.9047 -1.6461
thorax -3.76709 -13.8034 10.2969
lowerneck 7.07239 14.0544 -0.549929
upperneck 0.981979 18.3933 -6.96504
head -0.199487 9.22113 -2.42319
rclavicle -1.19271e-014 -1.1609e-013
rhumerus -63.0101 3.2499 -65.0071
rradius 15.0934
rwrist 47.4051
rhand -30.0861 40.3394
rfingers 7.12502
rthumb -3.4006 10.3868
lclavicle -1.19271e-014 -1.1609e-013
lhumerus 44.3165 -1.55283 72.6353
lradius 115.086
lwrist 46.2263
lhand -14.4974 -12.6448
lfingers 7.12502
lthumb 11.6494 17.0114
rfemur -91.8008 -15.5999 34.7052
rtibia 123.704
rfoot -0.153683 11.0722
rtoes -11.5707
lfemur 27.1188 -10.3335 -16.5091
ltibia 18.9642
lfoot -14.5475 2.81763
ltoes 7.4083
54
root -3.57283 17.4066 1.24378 30.5369 -77.9804 -66.7049
lowerback 57.1886 -15.2104 -5.36684
upperback 13.6645 -24.8644 -1.60258
thorax -3.72357 -13.7945 10.2972
lowerneck 6.75424 14.0663 -0.746783
upperneck 1.13773 18.4144 -6.87735
head -0.122989 9.22047 -2.33379
rclavicle 1.09729e-013 -3.97569e-014
rhumerus -62.9323 3.68339 -65.5005
rradius 15.3154
rwrist 46.402
rhand -29.7131 40.0197
rfingers 7.12502
rthumb -3.04044 10.0616
lclavicle 1.09729e-013 -3.97569e-014
lhumerus 43.6844 -1.57716 72.8058
lradius 115.116
lwrist 46.241
lhand -14.7796 -12.5453
lfingers 7.12502
lthumb 11.3773 17.126
rfemur -91.3758 -15.9991 34.6149
rtibia 123.662
rfoot 0.232822 11.4521
rtoes -11.5317
lfemur 26.951 -10.1945 -16.2899
ltibia 19.2328
lfoot -14.6975 2.76787
ltoes 7.55688
55
root -3.58282 17.3995 1.24908 32.0976 -78.0605 -68.1605
lowerback 56.9214 -15.1774 -5.3343
upperback 13.666 -24.7974 -1.55685
thorax -3.70148 -13.7674 10.2949
lowerneck 6.35208 14.0673 -0.905233
upperneck 1.36585 18.4323 -6.80239
head -0.00548758 9.2148 -2.24288
rclavicle -3.10104e-014 1.1609e-013
rhumerus -62.8582 4.26408 -66.2783
rradius 15.7413
rwrist 44.8907
rhand -29.321 39.6126
rfingers 7.12502
rthumb -2.66171 9.64946
lclavicle -3.10104e-014 1.1609e-013
lhumerus 43.0544 -1.56757 73.0346
lradius 115.086
lwrist 46.1702
lhand -14.9179 -12.4461
lfingers 7.12502
lthumb 11.2439 17.2326
rfemur -90.6906 -16.3913 34.4509
rtibia 123.572
rfoot 0.801398 11.848
rtoes -11.1252
lfemur 26.6328 -10.0315 -16.0833
ltibia 19.7418
lfoot -14.9757 2.7053
ltoes 7.62585
56
root -3.59169 17.3863 1.25521 33.9464 -78.2095 -69.8575
lowerback 56.5721 -15.1138 -5.30943
upperback 13.6647 -24.6932 -1.53113
thorax -3.68878 -13.7164 10.2611
lowerneck 6.0484 14.0664 -1.13399
upperneck 1.52251 18.4355 -6.6934
head 0.0624761 9.20436 -2.14516
rclavicle 8.74653e-015 3.33958e-014
rhumerus -62.7897 4.96439 -67.2718
rradius 16.3126
rwrist 42.9712
rhand -29.0192 39.2903
rfingers 7.12502
rthumb -2.37022 9.32377
lclavicle 8.74653e-015 3.33958e-014
lhumerus 42.4245 -1.52499 73.2912
lradius 115.01
lwrist 46.0174
lhand -14.9215 -12.4781
lfingers 7.12502
lthumb 11.2404 17.2008
rfemur -89.7798 -16.6381 34.1854
rtibia 123.339
rfoot 1.52456 12.1578
rtoes -10.8144
lfemur 26.1721 -9.86122 -15.9416
ltibia 20.4573
lfoot -15.37 2.71318
ltoes 7.7739
57
root -3.60012 17.3678 1.26162 36.0676 -78.3637 -71.7938
lowerback 56.1488 -15.0361 -5.26339
upperback 13.681 -24.5579 -1.5058
thorax -3.65908 -13.6516 10.2011
lowerneck 5.80255 14.0624 -1.4393
upperneck 1.58136 18.4248 -6.53471
head 0.0774852 9.1906 -2.03293
rclavicle 4.37326e-014 -1.81292e-013
rhumerus -62.6418 5.59383 -68.2333
rradius 17.0013
rwrist 41.042
rhand -28.7655 39.1296
rfingers 7.12502
rthumb -2.12521 9.16046
lclavicle 4.37326e-014 -1.81292e-013
lhumerus 41.7994 -1.46917 73.5832
lradius 114.92
lwrist 45.8113
lhand -14.8346 -12.5802
lfingers 7.12502
lthumb 11.3242 17.0941
rfemur -88.6685 -16.7951 33.8571
rtibia 122.977
rfoot 2.28562 12.3985
rtoes -10.5985
lfemur 25.6288 -9.71378 -15.8151
ltibia 21.2895
lfoot -15.8483 2.76317
ltoes 7.9122
